<svg xmlns="http://www.w3.org/2000/svg" xmlns:xlink="http://www.w3.org/1999/xlink" width="1080" zoomAndPan="magnify" viewBox="0 0 810 809.999993" height="1080" preserveAspectRatio="xMidYMid meet" version="1.0"><defs><g/></defs><g fill="#ffffff" fill-opacity="1"><g transform="translate(87.044714, 445.700461)"><g><path d="M 36.703125 -122.09375 L 36.703125 0 L 8.875 0 L 8.875 -122.09375 Z M 36.703125 -122.09375 "/></g></g></g><g fill="#ffffff" fill-opacity="1"><g transform="translate(125.226597, 445.700461)"><g><path d="M 8.875 0 L 8.875 -75.921875 L 35.078125 -75.921875 L 35.078125 -67.921875 L 35.375 -67.921875 C 42.175781 -74.734375 49.425781 -78.140625 57.125 -78.140625 C 60.875 -78.140625 64.597656 -77.644531 68.296875 -76.65625 C 71.992188 -75.664062 75.546875 -74.132812 78.953125 -72.0625 C 82.359375 -69.988281 85.117188 -67.050781 87.234375 -63.25 C 89.359375 -59.457031 90.421875 -55.046875 90.421875 -50.015625 L 90.421875 0 L 64.21875 0 L 64.21875 -42.921875 C 64.21875 -46.859375 62.957031 -50.304688 60.4375 -53.265625 C 57.925781 -56.234375 54.648438 -57.71875 50.609375 -57.71875 C 46.660156 -57.71875 43.082031 -56.1875 39.875 -53.125 C 36.675781 -50.0625 35.078125 -46.660156 35.078125 -42.921875 L 35.078125 0 Z M 8.875 0 "/></g></g></g><g fill="#ffffff" fill-opacity="1"><g transform="translate(215.649593, 445.700461)"><g><path d="M 13.3125 -75.921875 L 13.3125 -104.1875 L 39.515625 -104.1875 L 39.515625 -75.921875 L 55.5 -75.921875 L 55.5 -55.9375 L 39.515625 -55.9375 L 39.515625 -31.8125 C 39.515625 -24.8125 41.488281 -21.3125 45.4375 -21.3125 C 46.414062 -21.3125 47.445312 -21.507812 48.53125 -21.90625 C 49.625 -22.300781 50.460938 -22.691406 51.046875 -23.078125 L 51.9375 -23.671875 L 58.453125 -2.515625 C 52.828125 0.640625 46.414062 2.21875 39.21875 2.21875 C 34.28125 2.21875 30.035156 1.359375 26.484375 -0.359375 C 22.929688 -2.085938 20.242188 -4.40625 18.421875 -7.3125 C 16.597656 -10.226562 15.289062 -13.289062 14.5 -16.5 C 13.707031 -19.707031 13.3125 -23.132812 13.3125 -26.78125 L 13.3125 -55.9375 L 2.375 -55.9375 L 2.375 -75.921875 Z M 13.3125 -75.921875 "/></g></g></g><g fill="#ffffff" fill-opacity="1"><g transform="translate(266.706778, 445.700461)"><g><path d="M 85.6875 -34.328125 L 30.625 -34.328125 C 30.625 -29.003906 32.347656 -25.054688 35.796875 -22.484375 C 39.253906 -19.921875 43.007812 -18.640625 47.0625 -18.640625 C 51.300781 -18.640625 54.65625 -19.207031 57.125 -20.34375 C 59.59375 -21.476562 62.40625 -23.722656 65.5625 -27.078125 L 84.5 -17.609375 C 76.601562 -4.390625 63.484375 2.21875 45.140625 2.21875 C 33.691406 2.21875 23.875 -1.703125 15.6875 -9.546875 C 7.5 -17.390625 3.40625 -26.832031 3.40625 -37.875 C 3.40625 -48.925781 7.5 -58.398438 15.6875 -66.296875 C 23.875 -74.191406 33.691406 -78.140625 45.140625 -78.140625 C 57.171875 -78.140625 66.957031 -74.660156 74.5 -67.703125 C 82.050781 -60.742188 85.828125 -50.804688 85.828125 -37.890625 C 85.828125 -36.109375 85.78125 -34.921875 85.6875 -34.328125 Z M 31.375 -48.828125 L 60.234375 -48.828125 C 59.640625 -52.773438 58.082031 -55.8125 55.5625 -57.9375 C 53.050781 -60.0625 49.820312 -61.125 45.875 -61.125 C 41.53125 -61.125 38.078125 -59.988281 35.515625 -57.71875 C 32.953125 -55.445312 31.570312 -52.484375 31.375 -48.828125 Z M 31.375 -48.828125 "/></g></g></g><g fill="#ffffff" fill-opacity="1"><g transform="translate(348.546245, 445.700461)"><g><path d="M 8.875 0 L 8.875 -75.921875 L 35.078125 -75.921875 L 35.078125 -64.96875 L 35.375 -64.96875 C 35.570312 -65.363281 35.890625 -65.851562 36.328125 -66.4375 C 36.773438 -67.03125 37.738281 -68.066406 39.21875 -69.546875 C 40.695312 -71.023438 42.273438 -72.359375 43.953125 -73.546875 C 45.628906 -74.734375 47.796875 -75.796875 50.453125 -76.734375 C 53.117188 -77.671875 55.835938 -78.140625 58.609375 -78.140625 C 61.460938 -78.140625 64.269531 -77.742188 67.03125 -76.953125 C 69.800781 -76.160156 71.828125 -75.367188 73.109375 -74.578125 L 75.171875 -73.40625 L 64.21875 -51.203125 C 60.96875 -53.960938 56.429688 -55.34375 50.609375 -55.34375 C 47.453125 -55.34375 44.738281 -54.648438 42.46875 -53.265625 C 40.195312 -51.890625 38.59375 -50.210938 37.65625 -48.234375 C 36.71875 -46.265625 36.050781 -44.585938 35.65625 -43.203125 C 35.269531 -41.828125 35.078125 -40.742188 35.078125 -39.953125 L 35.078125 0 Z M 8.875 0 "/></g></g></g><g fill="#ffffff" fill-opacity="1"><g transform="translate(414.846572, 445.700461)"><g><path d="M 70.890625 -122.09375 L 120.15625 0 L 90.265625 0 L 81.25 -24.421875 L 34.78125 -24.421875 L 25.75 0 L -4.140625 0 L 45.140625 -122.09375 Z M 71.765625 -48.828125 L 58.15625 -84.34375 L 57.859375 -84.34375 L 44.25 -48.828125 Z M 71.765625 -48.828125 "/></g></g></g><g fill="#ffffff" fill-opacity="1"><g transform="translate(523.472579, 445.700461)"><g><path d="M 8.875 -122.09375 L 52.53125 -122.09375 C 64.269531 -122.09375 73.835938 -118.957031 81.234375 -112.6875 C 88.640625 -106.425781 92.34375 -97.472656 92.34375 -85.828125 C 92.34375 -76.847656 90.097656 -69.320312 85.609375 -63.25 C 81.117188 -57.1875 75.023438 -52.925781 67.328125 -50.46875 L 109.359375 0 L 73.984375 0 L 36.703125 -48.25 L 36.703125 0 L 8.875 0 Z M 36.703125 -67.921875 L 39.953125 -67.921875 C 42.515625 -67.921875 44.679688 -67.96875 46.453125 -68.0625 C 48.234375 -68.164062 50.257812 -68.515625 52.53125 -69.109375 C 54.800781 -69.703125 56.625 -70.539062 58 -71.625 C 59.382812 -72.707031 60.570312 -74.285156 61.5625 -76.359375 C 62.550781 -78.429688 63.046875 -80.945312 63.046875 -83.90625 C 63.046875 -86.863281 62.550781 -89.378906 61.5625 -91.453125 C 60.570312 -93.523438 59.382812 -95.101562 58 -96.1875 C 56.625 -97.269531 54.800781 -98.109375 52.53125 -98.703125 C 50.257812 -99.296875 48.234375 -99.640625 46.453125 -99.734375 C 44.679688 -99.835938 42.515625 -99.890625 39.953125 -99.890625 L 36.703125 -99.890625 Z M 36.703125 -67.921875 "/></g></g></g><g fill="#ffffff" fill-opacity="1"><g transform="translate(622.035131, 445.700461)"><g><path d="M 1.1875 -97.671875 L 1.1875 -122.09375 L 87.015625 -122.09375 L 87.015625 -97.671875 L 58.015625 -97.671875 L 58.015625 0 L 30.1875 0 L 30.1875 -97.671875 Z M 1.1875 -97.671875 "/></g></g></g></svg>